<?xml version="1.0" encoding="utf-8"?>
<!-- Generator: Adobe Illustrator 27.5.0, SVG Export Plug-In . SVG Version: 6.00 Build 0)  -->
<svg version="1.1" xmlns="http://www.w3.org/2000/svg" xmlns:xlink="http://www.w3.org/1999/xlink" x="0px" y="0px"
	 viewBox="0 0 3710 3710" style="enable-background:new 0 0 3710 3710;" xml:space="preserve">
<g id="Background">
	<g>
		<g>
			<rect style="fill:#FFFFFF;" width="3710" height="3710"/>
		</g>
	</g>
</g>
<g id="Illustration">
	<g>
		<linearGradient id="SVGID_1_" gradientUnits="userSpaceOnUse" x1="3549.6333" y1="3959.0288" x2="1145.0321" y2="972.665">
			<stop  offset="0" style="stop-color:#B37CFF"/>
			<stop  offset="1" style="stop-color:#F895E7"/>
		</linearGradient>
		<path style="opacity:0.3;fill:url(#SVGID_1_);" d="M2888.112,2781.315c-55.233,58.146-107.493,95.645-148.784,125.271
			c-485.358,348.25-1059.665,246.737-1181.721,221.946c-180.239-36.607-528.637-107.369-780.523-403.581
			c-381.082-448.145-321.742-1154.184-26.149-1620.25c54.068-85.252,339.674-558.417,920.167-634.298
			c351.308-45.922,760.82,46.698,1057.378,295.154C3350.981,1287.089,3306.666,2340.675,2888.112,2781.315z"/>
		<g>
			
				<linearGradient id="SVGID_00000106142188390928156270000016555637498325319816_" gradientUnits="userSpaceOnUse" x1="1361.0651" y1="759.8747" x2="3299.8479" y2="4168.2739">
				<stop  offset="0" style="stop-color:#FDF53F"/>
				<stop  offset="0.6645" style="stop-color:#E57A58"/>
				<stop  offset="1" style="stop-color:#D93C65"/>
			</linearGradient>
			<path style="fill:url(#SVGID_00000106142188390928156270000016555637498325319816_);" d="M3068.917,1651.31
				c-27.663,630.125-601.464,1116.736-1281.622,1086.877S578.186,2173.306,605.848,1543.181
				C633.51,913.057,1207.312,426.445,1887.47,456.304C2567.628,486.163,3096.58,1021.185,3068.917,1651.31z"/>
			
				<linearGradient id="SVGID_00000102525722688772498550000001687515303202713269_" gradientUnits="userSpaceOnUse" x1="781.9274" y1="-99.8507" x2="2092.8477" y2="3108.459">
				<stop  offset="0" style="stop-color:#FDF53F"/>
				<stop  offset="0.6645" style="stop-color:#E57A58"/>
				<stop  offset="1" style="stop-color:#D93C65"/>
			</linearGradient>
			<path style="fill:url(#SVGID_00000102525722688772498550000001687515303202713269_);" d="M907.443,840.622
				c-27.058,43.439-47.921,92.341-44.003,143.367c4.537,59.084,34.441,114.413,35.974,173.651
				c2.6,100.464-74.953,184.557-99.146,282.099c-27.04,109.026,74.912,233.251,115.532,294.104
				c40.619,60.853,23.163-49.375,47.795-92.357c24.632-42.982,77.744,180.861,160.708,229.989
				c44.512,26.358,96.734,43.905,128.748,84.54c46.692,59.266,33.755,143.6,26.745,218.723
				c-7.01,75.124,3.49,166.676,71.147,200.072c39.837,19.664,90.473,13.009,126.422,39.111
				c63.133,45.839,32.974,145.775,57.991,219.675c27.205,80.364,81.149,81.422,164.61,98.46
				c83.461,17.038-10.516-166.321,28.583-230.405c20.551-33.683,51.923-60.488,68.131-96.462
				c22.478-49.891,16.147-116.549,59.753-149.608c32.687-24.781,78.17-18.077,119.186-18.438
				c41.017-0.362,90.903-18.161,95.556-58.914c4.129-36.16-32.071-64.993-67.488-73.373c-35.417-8.38-73.156-4.384-107.939-15.094
				c-99.491-30.634-145.896-169.857-249.792-176.371c-88.809-5.568-163.194,94.117-250.458,76.706
				c-48.648-9.706-81.948-52.791-118.058-86.804c-46.389-43.693-103.961-76.486-140.791-128.492
				c-36.83-52.006-43.096-135.132,9.299-171.407c38.92-26.946,94.221-16.008,132.671,11.606
				c38.45,27.613,64.638,68.584,92.876,106.578c8.721,11.734,18.591,23.895,32.544,28.263c37.547,11.753,64.944-41.07,55.959-79.374
				c-8.984-38.304-36.042-71.994-37.313-111.316c-2.24-69.303,72.39-113.277,137.861-136.113
				c65.471-22.836,142.637-50.062,161.886-116.675c6.799-23.53,5.015-49.422,15.392-71.607
				c34.388-73.525,215.848-110.23,172.473-152.864c-43.375-42.634-181.045-51.901-207.854-137.763
				c-9.598-30.739-19.479-71.371-51.544-74.344c-52.229-4.843-82.031,59.807-125.84,70.904
				c-20.797,5.268-22.798,40.593-21.987,84.031c0.589,31.53-24.49,57.569-56.02,58.165c-31.53,0.596-57.578-24.476-58.179-56.005
				c-0.223-11.704,1.826-23.533,6.639-35.33c8.435-20.674,24.453-37.207,40.602-52.627
				c67.381-64.338,268.443-135.028,226.34-162.415c-42.103-27.387-244.176-102.965-274.318-61.256
				c-30.142,41.709,19.711,6.392,31.869,55.859c12.159,49.467-149.483,42.834-224.225,64.251
				c-12.341,3.536-26.028,6.98-37.582,1.386c-12.915-6.253-18.352-21.285-25.361-33.806
				c-37.537-67.062-162.387-23.533-162.387-23.533S931.62,801.81,907.443,840.622z"/>
			
				<linearGradient id="SVGID_00000091694171975595425840000005429361136751624334_" gradientUnits="userSpaceOnUse" x1="2396.8386" y1="-295.0678" x2="1023.8196" y2="1616.1196">
				<stop  offset="0" style="stop-color:#FDF53F"/>
				<stop  offset="0.6645" style="stop-color:#E57A58"/>
				<stop  offset="1" style="stop-color:#D93C65"/>
			</linearGradient>
			<path style="fill:url(#SVGID_00000091694171975595425840000005429361136751624334_);" d="M1472.148,536.296
				c-18.147,33.83,35.821,33.282,41.189,71.294c48.583,5.294,68.535-71.302,116.58-80.242c27.115-5.045,53.405,14.382,68.14,37.696
				c14.734,23.314,21.607,50.689,34.096,75.279c27.982,55.097,85.76,93.875,147.352,98.894c13.4,1.092,28.167,0.235,38.254-8.654
				c29.281-25.803-12.61-74.277-1.727-111.757c12.436-42.829,74.193-36.332,115.933-52.039
				c11.513-4.332,100.061-27.96,101.485-40.178c2.525-21.661-38.554-35.451-84.51-47.268
				c-77.859-20.021-214.855-19.189-281.818-13.13C1678.035,474.252,1529.607,467.739,1472.148,536.296L1472.148,536.296z"/>
			<g>
				
					<linearGradient id="SVGID_00000097489083495383807780000001730357290004614548_" gradientUnits="userSpaceOnUse" x1="3434.4631" y1="-273.3988" x2="2102.8411" y2="3238.4897">
					<stop  offset="0" style="stop-color:#FDF53F"/>
					<stop  offset="0.6645" style="stop-color:#E57A58"/>
					<stop  offset="1" style="stop-color:#D93C65"/>
				</linearGradient>
				<path style="fill:url(#SVGID_00000097489083495383807780000001730357290004614548_);" d="M2957.837,1991.227
					c20.188-126.37,18.507-256.203-4.944-382.008c-6.256-33.56-20.9-73.569-54.695-78.399c-39.09-5.587-86.945,39.316-111.415,8.324
					c-10.802-13.68-6.491-33.598-0.373-49.918c16.138-43.044,41.401-82.641,73.635-115.416
					c20.025-20.36,42.937-38.409,58.356-62.446c32.979-51.41,9.829-126.536-36.848-165.93
					c-46.677-39.393-106.893,31.25-155.959,3.208c-49.066-28.042-50.594-96.073-59.815-151.83
					c-6.831-41.301-37.261-153.195-70.876-98.701c-33.615,54.494,44.839,271.422,133.137,375.406
					c10.65,12.543,22.411,26.59,21.511,43.02c-2.148,39.234-59.321,37.489-97.784,45.522c-47.61,9.945-120.583-15.554-80.312,67.408
					c21.24,43.755,122.692,103.643,95.431,132.925c-27.26,29.282-111.067,114.099-150.391,182.692
					c-39.324,68.593-58.381,154.009-28.727,227.302c29.654,73.294,118.82,123.904,191.607,93.028
					c34.067-14.452,71.199-44.497,102.866-25.351c28.678,17.338,24.446,58.956,23.027,92.438
					c-1.418,33.48,17.881,77.926,50.456,70.061c10.719-2.588,19.15-10.715,26.387-19.033
					C2927.942,2130.857,2946.823,2060.171,2957.837,1991.227z"/>
			</g>
			<ellipse style="opacity:0.15;fill:#FFFFFF;" cx="1770.665" cy="1514.849" rx="967.304" ry="913.793"/>
			<g style="opacity:0.68;">
				<path style="fill:#FFFFFF;" d="M2181.635,1616.848c-0.296,201.368-14.065,403.144-49.421,601.659
					c-8.952,49.589-19.336,98.938-31.714,147.818c-12.414,48.859-26.751,97.294-44.309,144.641
					c-17.704,47.224-38.259,93.764-66.119,136.27c-14.037,21.096-29.958,41.302-49.578,57.903
					c-9.809,8.247-20.573,15.557-32.399,20.909c-11.803,5.316-24.689,8.681-37.767,8.921c-13.063,0.386-26.142-2.186-38.176-7.036
					c-12.081-4.806-23.104-11.785-33.147-19.76c-20.088-16.082-36.359-36.062-50.646-56.992
					c-14.257-21.023-26.432-43.301-37.45-66.056c-10.975-22.786-20.735-46.113-29.63-69.739
					c-17.78-47.266-32.261-95.662-44.785-144.491c-12.503-48.847-22.991-98.175-32.019-147.748
					c-18.017-99.166-30.286-199.287-38.546-299.683c-8.2-100.411-12.281-201.142-12.73-301.885
					c-0.218-50.367,1.062-100.726,2.825-151.054c1.843-50.328,4.574-100.624,8.236-150.853
					c7.364-100.445,18.407-200.67,34.862-300.073c8.258-49.688,17.894-99.167,29.491-148.21
					c11.628-49.024,25.147-97.659,41.925-145.237c8.434-23.767,17.655-47.279,28.174-70.235
					c10.502-22.952,22.258-45.402,36.073-66.621c13.846-21.127,29.763-41.287,49.571-57.417
					c9.903-7.994,20.808-14.947,32.754-19.659c11.896-4.772,24.8-7.197,37.64-6.714c12.849,0.364,25.514,3.585,37.205,8.742
					c11.706,5.185,22.466,12.235,32.348,20.229c19.766,16.088,36.135,35.768,50.653,56.437
					c14.472,20.758,27.091,42.718,38.488,65.237c11.42,22.517,21.596,45.631,30.989,69.034
					c18.707,46.852,34.148,94.921,47.591,143.486c13.396,48.588,24.733,97.718,34.539,147.135
					C2165.357,1213.652,2181.1,1415.452,2181.635,1616.848z M2169.048,1616.848c0.151-100.397-3.697-200.816-12.073-300.862
					c-8.283-100.041-20.829-199.786-39.464-298.43c-9.314-49.313-20.154-98.346-33.043-146.836
					c-12.935-48.467-27.861-96.438-46.022-143.171c-9.121-23.343-19.014-46.391-30.137-68.828
					c-11.095-22.439-23.398-44.302-37.5-64.935c-14.146-20.542-30.101-40.058-49.258-55.94
					c-9.575-7.895-19.974-14.833-31.231-19.943c-11.245-5.05-23.363-8.348-35.685-8.674c-12.314-0.396-24.619,2.067-36.012,6.745
					c-11.434,4.631-21.924,11.444-31.485,19.31c-19.128,15.864-34.615,35.809-48.076,56.776
					c-13.437,21.058-24.874,43.388-35.076,66.241c-10.218,22.857-19.162,46.292-27.324,69.985
					c-16.239,47.436-29.249,95.962-40.375,144.881c-11.098,48.938-20.243,98.318-28.015,147.908
					c-15.484,99.203-25.571,199.218-31.988,299.42c-6.464,100.217-8.812,200.662-8.643,301.067
					c-0.205,100.392,3.21,200.81,10.731,300.925c7.58,100.098,19.16,199.944,36.461,298.811
					c8.668,49.422,18.79,98.593,30.911,147.26c12.141,48.649,26.224,96.844,43.556,143.837c8.669,23.488,18.189,46.657,28.89,69.248
					c10.741,22.555,22.611,44.6,36.455,65.301c13.865,20.61,29.643,40.17,48.795,55.697c9.57,7.703,19.995,14.375,31.277,18.946
					c11.248,4.585,23.328,7.122,35.43,6.719c12.1-0.304,24.022-3.491,35.075-8.554c11.071-5.097,21.271-12.104,30.632-20.084
					c18.735-16.059,34.175-35.862,47.797-56.648c27.065-41.893,47.144-88.111,64.377-135.057
					c17.098-47.079,31.028-95.313,43.047-143.993c11.985-48.7,21.987-97.893,30.572-147.33
					c17.171-98.888,28.611-198.746,36.207-298.845C2165.529,1817.687,2169.077,1717.261,2169.048,1616.848z"/>
				<path style="fill:#FFFFFF;" d="M2689.596,1616.848c-0.664,129.597-17.288,259.256-51.947,384.238
					c-35.236,124.703-88.342,244.7-160.513,352.444c-36.088,53.814-76.977,104.474-122.675,150.442
					c-45.681,45.949-96.194,87.213-151.059,121.767c-54.915,34.417-114.229,61.971-176.319,80.668
					c-62.053,18.743-126.835,28.529-191.681,28.609c-64.845-0.031-129.642-9.765-191.723-28.466
					c-62.117-18.655-121.471-46.171-176.435-80.559c-54.912-34.522-105.489-75.756-151.233-121.689
					c-45.761-45.95-86.718-96.602-122.876-150.416c-72.293-107.757-125.493-227.798-160.869-352.553
					c-34.927-125.01-51.505-254.804-52.044-384.485c0.32-64.861,4.639-129.694,13.213-193.979
					c8.614-64.275,21.583-127.983,39.045-190.45c35.45-124.711,88.72-244.683,161.054-352.346
					c36.169-53.772,77.133-104.375,122.889-150.275c45.744-45.874,96.29-87.074,151.194-121.505
					c54.951-34.313,114.293-61.657,176.319-80.306c61.987-18.722,126.695-28.495,191.468-28.575
					c64.773,0.125,129.468,9.944,191.429,28.706c62,18.691,121.299,46.081,176.2,80.424
					c54.854,34.464,105.339,75.695,151.019,121.585c45.693,45.917,86.588,96.529,122.688,150.301
					c72.21,107.65,125.39,227.579,160.697,352.239C2672.16,1357.611,2688.858,1487.25,2689.596,1616.848z M2675.167,1616.848
					c-0.234-128.354-16.27-256.839-50.18-380.726c-34.133-123.689-85.526-243.066-156.197-350.404
					c-35.317-53.615-75.42-104.144-120.328-150.069c-44.921-45.856-94.543-87.319-148.781-121.798
					c-54.303-34.294-112.945-61.873-174.419-80.543c-61.443-18.688-125.594-28.507-189.859-28.713
					c-64.263,0.252-128.4,10.118-189.817,28.844c-61.449,18.712-120.047,46.339-174.3,80.662
					c-54.19,34.513-103.75,76.005-148.608,121.877c-44.843,45.942-84.878,96.48-120.127,150.095
					c-70.546,107.327-121.848,226.658-155.84,350.296c-16.916,61.894-29.192,125.005-37.497,188.594
					c-8.317,63.598-12.428,127.731-12.587,191.885c0.193,64.153,4.339,128.283,12.69,191.871
					c8.34,63.58,20.656,126.675,37.608,188.549c34.066,123.595,85.439,242.858,156.025,350.091
					c35.26,53.573,75.3,104.063,120.138,149.954c44.859,45.813,94.389,87.273,148.569,121.694
					c54.242,34.248,112.828,61.703,174.185,80.408c61.321,18.75,125.37,28.651,189.562,28.952
					c64.193-0.25,128.257-10.103,189.607-28.809c61.384-18.662,120.012-46.079,174.299-80.298
					c54.23-34.391,103.821-75.821,148.744-121.617c44.902-45.873,85.01-96.355,120.34-149.927
					c70.709-107.244,122.176-226.552,156.38-350.2C2658.749,1873.666,2674.86,1745.202,2675.167,1616.848z"/>
				<path style="fill:#FFFFFF;" d="M837.075,1174.317l256.925-1.746l256.925-0.999l513.85-0.802l513.85,0.882l256.923,1.086
					l256.925,1.89c0.352,0.003,0.635,0.291,0.633,0.641c-0.003,0.349-0.286,0.63-0.633,0.633l-256.925,1.89l-256.923,1.086
					l-513.85,0.882l-513.85-0.802L1094,1177.96l-256.925-1.746c-0.524-0.003-0.947-0.432-0.942-0.956
					C836.137,1174.74,836.557,1174.322,837.075,1174.317z"/>
				<path style="fill:#FFFFFF;" d="M1135.138,743.99l182.409-1.752l182.409-0.992c60.803-0.424,121.606-0.378,182.409-0.508
					l182.409-0.294l364.817,0.882L2412,742.41c60.803,0.645,121.606,1.021,182.409,1.892c0.352,0.005,0.633,0.296,0.628,0.646
					c-0.005,0.346-0.286,0.624-0.628,0.628c-60.803,0.872-121.606,1.247-182.409,1.892l-182.409,1.085l-364.817,0.882
					l-182.409-0.294c-60.803-0.13-121.606-0.084-182.409-0.507l-182.409-0.994l-182.409-1.752c-0.523-0.005-0.945-0.433-0.938-0.958
					C1134.204,744.412,1134.623,743.996,1135.138,743.99z"/>
				<path style="fill:#FFFFFF;" d="M747.792,1604.644l279.245-1.745l279.247-1l558.492-0.8l558.491,0.882l279.245,1.086
					l279.247,1.89c0.351,0.003,0.635,0.289,0.632,0.641c-0.002,0.349-0.284,0.63-0.632,0.633l-279.247,1.89l-279.245,1.085
					l-558.491,0.883l-558.492-0.802l-279.247-0.999l-279.245-1.745c-0.524-0.003-0.947-0.432-0.943-0.955
					C746.851,1605.068,747.272,1604.647,747.792,1604.644z"/>
				<path style="fill:#FFFFFF;" d="M837.075,2034.971l256.925-1.745l256.925-1l513.85-0.8l513.85,0.882l256.923,1.086l256.925,1.89
					c0.352,0.003,0.635,0.289,0.633,0.641c-0.003,0.349-0.286,0.63-0.633,0.632l-256.925,1.892l-256.923,1.085l-513.85,0.883
					l-513.85-0.802L1094,2038.615l-256.925-1.747c-0.524-0.003-0.947-0.43-0.942-0.955
					C836.137,2035.393,836.557,2034.974,837.075,2034.971z"/>
				<path style="fill:#FFFFFF;" d="M2631.173,2469.572h-1459.27c-1.837,0-3.325-1.487-3.325-3.325c0-1.838,1.489-3.325,3.325-3.325
					h1459.27c1.836,0,3.325,1.488,3.325,3.325C2634.499,2468.084,2633.01,2469.572,2631.173,2469.572z"/>
			</g>
		</g>
		<g>
			
				<linearGradient id="SVGID_00000142158441358058203800000000528755044397521542_" gradientUnits="userSpaceOnUse" x1="2210.7844" y1="3035.6753" x2="2171.249" y2="3120.8923">
				<stop  offset="0" style="stop-color:#2B3582"/>
				<stop  offset="1" style="stop-color:#150E42"/>
			</linearGradient>
			<path style="fill:url(#SVGID_00000142158441358058203800000000528755044397521542_);" d="M2224.521,3083.63h-62.805
				c-1.463,0-2.66-1.197-2.66-2.661v-14.429c0-1.463,1.197-2.66,2.66-2.66h62.805c1.463,0,2.66,1.197,2.66,2.66v14.429
				C2227.181,3082.433,2225.984,3083.63,2224.521,3083.63z"/>
			
				<linearGradient id="SVGID_00000122678884733856341160000015508401280151173250_" gradientUnits="userSpaceOnUse" x1="2278.6633" y1="2888.4578" x2="2091.9697" y2="3290.8682">
				<stop  offset="0" style="stop-color:#2B3582"/>
				<stop  offset="1" style="stop-color:#150E42"/>
			</linearGradient>
			<path style="fill:url(#SVGID_00000122678884733856341160000015508401280151173250_);" d="M2210.098,3177.534h-29.719
				c-3.014,0-5.48-2.466-5.48-5.48v-207.552c0-3.014,2.466-5.48,5.48-5.48h29.719c3.014,0,5.48,2.466,5.48,5.48v207.552
				C2215.577,3175.068,2213.112,3177.534,2210.098,3177.534z"/>
			
				<linearGradient id="SVGID_00000176006212435954745830000014445029858367222189_" gradientUnits="userSpaceOnUse" x1="-1031.8567" y1="3036.4631" x2="-1071.3921" y2="3121.6799" gradientTransform="matrix(-1 0 0 1 1711.2679 0)">
				<stop  offset="0" style="stop-color:#2B3582"/>
				<stop  offset="1" style="stop-color:#150E42"/>
			</linearGradient>
			<path style="fill:url(#SVGID_00000176006212435954745830000014445029858367222189_);" d="M2729.389,3084.418h62.805
				c1.463,0,2.661-1.197,2.661-2.66v-14.429c0-1.463-1.197-2.661-2.661-2.661h-62.805c-1.463,0-2.661,1.197-2.661,2.661v14.429
				C2726.728,3083.221,2727.925,3084.418,2729.389,3084.418z"/>
			
				<linearGradient id="SVGID_00000016756185316790145020000004918699981868937388_" gradientUnits="userSpaceOnUse" x1="-963.9778" y1="2889.2456" x2="-1150.6715" y2="3291.656" gradientTransform="matrix(-1 0 0 1 1711.2679 0)">
				<stop  offset="0" style="stop-color:#2B3582"/>
				<stop  offset="1" style="stop-color:#150E42"/>
			</linearGradient>
			<path style="fill:url(#SVGID_00000016756185316790145020000004918699981868937388_);" d="M2743.811,3178.321h29.719
				c3.014,0,5.48-2.466,5.48-5.48v-207.552c0-3.014-2.466-5.48-5.48-5.48h-29.719c-3.014,0-5.48,2.466-5.48,5.48v207.552
				C2738.332,3175.855,2740.798,3178.321,2743.811,3178.321z"/>
			
				<linearGradient id="SVGID_00000075881462817310617310000016389740556803087764_" gradientUnits="userSpaceOnUse" x1="2477.0928" y1="2183.1404" x2="2466.1704" y2="2838.5186">
				<stop  offset="0" style="stop-color:#9F5699"/>
				<stop  offset="1" style="stop-color:#202278"/>
			</linearGradient>
			<path style="fill:url(#SVGID_00000075881462817310617310000016389740556803087764_);" d="M2621.411,2315.468h-292.105v-56.323
				c0-9.941,8.059-18,18-18h254.082c11.059,0,20.024,8.965,20.024,20.024V2315.468z"/>
			
				<linearGradient id="SVGID_00000091732940594240684790000005540491302104723096_" gradientUnits="userSpaceOnUse" x1="2466.2151" y1="1731.4296" x2="2493.2231" y2="3751.7356">
				<stop  offset="0" style="stop-color:#9F5699"/>
				<stop  offset="1" style="stop-color:#202278"/>
			</linearGradient>
			<path style="fill:url(#SVGID_00000091732940594240684790000005540491302104723096_);" d="M2676.229,3177.534h-400.13
				c-27.233,0-49.597-21.522-50.641-48.735l-27.45-715.273c-1.103-28.73,21.89-52.622,50.641-52.622h453.316
				c28.704,0,51.678,23.816,50.646,52.501l-25.736,715.273C2725.894,3155.939,2703.509,3177.534,2676.229,3177.534z"/>
			
				<linearGradient id="SVGID_00000108304780433707860760000010103816552273556617_" gradientUnits="userSpaceOnUse" x1="2616.0735" y1="2065.1462" x2="2318.5503" y2="2706.4451">
				<stop  offset="0" style="stop-color:#9F5699"/>
				<stop  offset="1" style="stop-color:#202278"/>
			</linearGradient>
			<path style="fill:url(#SVGID_00000108304780433707860760000010103816552273556617_);" d="M2771.785,2394.976h-596.31
				l19.79-86.518c3.457-15.113,16.902-25.83,32.406-25.83h500.705c15.03,0,27.811,10.966,30.097,25.821L2771.785,2394.976z"/>
			
				<linearGradient id="SVGID_00000005255466947856319560000011058281440716719769_" gradientUnits="userSpaceOnUse" x1="2429.6147" y1="2512.7532" x2="2781.0615" y2="1561.7816">
				<stop  offset="0" style="stop-color:#9F5699"/>
				<stop  offset="1" style="stop-color:#202278"/>
			</linearGradient>
			<path style="fill:url(#SVGID_00000005255466947856319560000011058281440716719769_);" d="M2789.652,2443.372H2154.15
				c-4.451,0-8.059-3.608-8.059-8.059v-73.964c0-4.451,3.608-8.059,8.059-8.059h635.502c4.451,0,8.059,3.608,8.059,8.059v73.964
				C2797.711,2439.764,2794.103,2443.372,2789.652,2443.372z"/>
			<g>
				
					<rect x="2520.314" y="2695.143" transform="matrix(0.6981 0.716 -0.716 0.6981 2709.136 -1029.1689)" style="fill:#FFFFFF;" width="109.185" height="5.267"/>
				<polygon style="fill:#FFFFFF;" points="2608.783,2740.992 2532.565,2662.812 2508.396,2665.976 2604.198,2764.244 				"/>
				
					<rect x="2355.552" y="2856.34" transform="matrix(0.6981 0.716 -0.716 0.6981 2774.4233 -862.6935)" style="fill:#FFFFFF;" width="109.185" height="4.13"/>
				<polygon style="fill:#FFFFFF;" points="2452.078,2893.766 2375.859,2815.586 2379.637,2791.505 2475.439,2889.773 				"/>
				
					<rect x="2423.608" y="2693.996" transform="matrix(0.6981 0.716 -0.716 0.6981 2741.3235 -945.8753)" style="fill:#FFFFFF;" width="137.24" height="167.151"/>
			</g>
			<path style="fill:#FFFFFF;" d="M2492.397,2931.588c-87.102,0-157.964-70.864-157.964-157.965
				c0-87.101,70.862-157.965,157.964-157.965c87.103,0,157.965,70.864,157.965,157.965
				C2650.363,2860.724,2579.5,2931.588,2492.397,2931.588z M2492.397,2622.308c-83.433,0-151.313,67.879-151.313,151.314
				c0,83.435,67.879,151.314,151.313,151.314c83.435,0,151.314-67.879,151.314-151.314
				C2643.712,2690.188,2575.832,2622.308,2492.397,2622.308z"/>
		</g>
		<g>
			
				<linearGradient id="SVGID_00000180332145506945375420000002443590195294477997_" gradientUnits="userSpaceOnUse" x1="1550.9279" y1="3033.2727" x2="1511.3925" y2="3118.4897">
				<stop  offset="0" style="stop-color:#2B3582"/>
				<stop  offset="1" style="stop-color:#150E42"/>
			</linearGradient>
			<path style="fill:url(#SVGID_00000180332145506945375420000002443590195294477997_);" d="M1564.664,3081.228h-62.805
				c-1.463,0-2.661-1.197-2.661-2.66v-14.429c0-1.463,1.197-2.661,2.661-2.661h62.805c1.463,0,2.661,1.197,2.661,2.661v14.429
				C1567.324,3080.03,1566.127,3081.228,1564.664,3081.228z"/>
			
				<linearGradient id="SVGID_00000025414543866547132180000012326028552834872473_" gradientUnits="userSpaceOnUse" x1="1618.8068" y1="2886.0554" x2="1432.1132" y2="3288.4656">
				<stop  offset="0" style="stop-color:#2B3582"/>
				<stop  offset="1" style="stop-color:#150E42"/>
			</linearGradient>
			<path style="fill:url(#SVGID_00000025414543866547132180000012326028552834872473_);" d="M1550.241,3175.131h-29.719
				c-3.014,0-5.48-2.466-5.48-5.48v-207.552c0-3.014,2.466-5.48,5.48-5.48h29.719c3.014,0,5.48,2.466,5.48,5.48v207.552
				C1555.721,3172.665,1553.255,3175.131,1550.241,3175.131z"/>
			
				<linearGradient id="SVGID_00000170987070631351015860000009551295725097863827_" gradientUnits="userSpaceOnUse" x1="-372.0002" y1="3034.0605" x2="-411.5356" y2="3119.2776" gradientTransform="matrix(-1 0 0 1 1711.2679 0)">
				<stop  offset="0" style="stop-color:#2B3582"/>
				<stop  offset="1" style="stop-color:#150E42"/>
			</linearGradient>
			<path style="fill:url(#SVGID_00000170987070631351015860000009551295725097863827_);" d="M2069.532,3082.015h62.805
				c1.463,0,2.66-1.197,2.66-2.661v-14.429c0-1.463-1.197-2.66-2.66-2.66h-62.805c-1.463,0-2.66,1.197-2.66,2.66v14.429
				C2066.872,3080.818,2068.069,3082.015,2069.532,3082.015z"/>
			
				<linearGradient id="SVGID_00000088113749248917551650000011025259471299554958_" gradientUnits="userSpaceOnUse" x1="-304.1212" y1="2886.843" x2="-490.8149" y2="3289.2534" gradientTransform="matrix(-1 0 0 1 1711.2679 0)">
				<stop  offset="0" style="stop-color:#2B3582"/>
				<stop  offset="1" style="stop-color:#150E42"/>
			</linearGradient>
			<path style="fill:url(#SVGID_00000088113749248917551650000011025259471299554958_);" d="M2083.955,3175.919h29.719
				c3.014,0,5.48-2.466,5.48-5.48v-207.552c0-3.014-2.466-5.48-5.48-5.48h-29.719c-3.014,0-5.48,2.466-5.48,5.48v207.552
				C2078.475,3173.453,2080.941,3175.919,2083.955,3175.919z"/>
			
				<linearGradient id="SVGID_00000169542258381405185560000009619888840869963687_" gradientUnits="userSpaceOnUse" x1="1889.2103" y1="2124.0366" x2="1727.1584" y2="2473.3328">
				<stop  offset="0" style="stop-color:#3840F7"/>
				<stop  offset="1" style="stop-color:#53D8FF"/>
			</linearGradient>
			<path style="fill:url(#SVGID_00000169542258381405185560000009619888840869963687_);" d="M1961.554,2313.065h-292.105v-56.323
				c0-9.941,8.059-18,18-18h254.082c11.059,0,20.024,8.965,20.024,20.024V2313.065z"/>
			
				<linearGradient id="SVGID_00000025410613675672404660000000187354680653150895_" gradientUnits="userSpaceOnUse" x1="2077.2156" y1="584.7627" x2="1591.7037" y2="4442.2769">
				<stop  offset="0" style="stop-color:#3840F7"/>
				<stop  offset="1" style="stop-color:#53D8FF"/>
			</linearGradient>
			<path style="fill:url(#SVGID_00000025410613675672404660000000187354680653150895_);" d="M2016.372,3175.131h-400.13
				c-27.233,0-49.597-21.522-50.641-48.735l-27.45-715.273c-1.103-28.73,21.89-52.622,50.641-52.622h453.316
				c28.704,0,51.678,23.816,50.646,52.501l-25.736,715.273C2066.037,3153.537,2043.652,3175.131,2016.372,3175.131z"/>
			
				<linearGradient id="SVGID_00000137836926489014874470000005111065000076371135_" gradientUnits="userSpaceOnUse" x1="1956.2169" y1="2062.7439" x2="1658.6938" y2="2704.0425">
				<stop  offset="0" style="stop-color:#3840F7"/>
				<stop  offset="1" style="stop-color:#53D8FF"/>
			</linearGradient>
			<path style="fill:url(#SVGID_00000137836926489014874470000005111065000076371135_);" d="M2111.928,2392.573h-596.31
				l19.79-86.518c3.457-15.113,16.902-25.83,32.406-25.83h500.705c15.03,0,27.812,10.966,30.097,25.821L2111.928,2392.573z"/>
			
				<linearGradient id="SVGID_00000011749806612023586380000008241651914929238424_" gradientUnits="userSpaceOnUse" x1="1812.0447" y1="2186.5344" x2="1812.0447" y2="3115.6594">
				<stop  offset="0" style="stop-color:#3840F7"/>
				<stop  offset="1" style="stop-color:#53D8FF"/>
			</linearGradient>
			<path style="fill:url(#SVGID_00000011749806612023586380000008241651914929238424_);" d="M2129.796,2440.969h-635.502
				c-4.451,0-8.059-3.608-8.059-8.059v-73.964c0-4.451,3.608-8.059,8.059-8.059h635.502c4.451,0,8.059,3.608,8.059,8.059v73.964
				C2137.854,2437.362,2134.247,2440.969,2129.796,2440.969z"/>
			<path style="fill:#FFFFFF;" d="M1824.088,2937.216c-87.103,0-157.965-70.864-157.965-157.965s70.862-157.965,157.965-157.965
				c87.103,0,157.965,70.864,157.965,157.965S1911.191,2937.216,1824.088,2937.216z M1824.088,2627.936
				c-83.435,0-151.314,67.879-151.314,151.314c0,83.435,67.879,151.314,151.314,151.314c83.435,0,151.314-67.879,151.314-151.314
				C1975.402,2695.816,1907.523,2627.936,1824.088,2627.936z"/>
			<path style="fill:#FFFFFF;" d="M1767.987,2690.272l113.908,3.258c1.781,0.051,3.284,1.387,3.536,3.152
				c9.332,65.373-0.284,126.124-41.979,169.109c-2.248,2.317-5.44,3.481-8.663,3.298l-117.403-6.687
				c-2.178-0.124-3.25-2.655-1.868-4.343c36.383-44.45,48.976-102.152,50.572-165.979
				C1766.115,2691.055,1766.962,2690.242,1767.987,2690.272z"/>
			<path style="fill:#FFFFFF;" d="M1847.165,2871.041c-0.391,0-0.783-0.136-1.098-0.416c-0.69-0.604-0.757-1.656-0.151-2.345
				c52.727-59.933,50.39-120.888,41.151-172.615c-0.161-0.903,0.44-1.767,1.344-1.929c0.905-0.143,1.768,0.442,1.929,1.344
				c9.379,52.506,11.733,114.403-41.927,175.395C1848.084,2870.85,1847.626,2871.041,1847.165,2871.041z"/>
			<path style="fill:#FFFFFF;" d="M1854.368,2874.643c-0.391,0-0.783-0.136-1.098-0.416c-0.69-0.604-0.757-1.656-0.151-2.345
				c52.727-59.933,50.39-120.888,41.151-172.615c-0.161-0.903,0.44-1.766,1.344-1.929c0.911-0.133,1.767,0.442,1.929,1.344
				c9.379,52.506,11.733,114.403-41.927,175.395C1855.287,2874.451,1854.829,2874.643,1854.368,2874.643z"/>
		</g>
		<g>
			
				<linearGradient id="SVGID_00000142877770490441729640000009838762095653164419_" gradientUnits="userSpaceOnUse" x1="908.066" y1="3027.3201" x2="868.5306" y2="3112.5371">
				<stop  offset="0" style="stop-color:#2B3582"/>
				<stop  offset="1" style="stop-color:#150E42"/>
			</linearGradient>
			<path style="fill:url(#SVGID_00000142877770490441729640000009838762095653164419_);" d="M921.802,3075.275h-62.805
				c-1.463,0-2.661-1.197-2.661-2.66v-14.429c0-1.463,1.197-2.66,2.661-2.66h62.805c1.463,0,2.661,1.197,2.661,2.66v14.429
				C924.463,3074.078,923.265,3075.275,921.802,3075.275z"/>
			
				<linearGradient id="SVGID_00000041981199129018139180000014700455137123206539_" gradientUnits="userSpaceOnUse" x1="975.9449" y1="2880.1025" x2="789.2513" y2="3282.5129">
				<stop  offset="0" style="stop-color:#2B3582"/>
				<stop  offset="1" style="stop-color:#150E42"/>
			</linearGradient>
			<path style="fill:url(#SVGID_00000041981199129018139180000014700455137123206539_);" d="M907.379,3169.178H877.66
				c-3.014,0-5.48-2.466-5.48-5.48v-207.552c0-3.014,2.466-5.48,5.48-5.48h29.719c3.014,0,5.48,2.466,5.48,5.48v207.552
				C912.859,3166.712,910.393,3169.178,907.379,3169.178z"/>
			
				<linearGradient id="SVGID_00000060734508829661180050000000680768439878885512_" gradientUnits="userSpaceOnUse" x1="270.8617" y1="3028.1079" x2="231.3263" y2="3113.3247" gradientTransform="matrix(-1 0 0 1 1711.2679 0)">
				<stop  offset="0" style="stop-color:#2B3582"/>
				<stop  offset="1" style="stop-color:#150E42"/>
			</linearGradient>
			<path style="fill:url(#SVGID_00000060734508829661180050000000680768439878885512_);" d="M1426.67,3076.063h62.805
				c1.463,0,2.661-1.197,2.661-2.66v-14.429c0-1.463-1.197-2.661-2.661-2.661h-62.805c-1.463,0-2.661,1.197-2.661,2.661v14.429
				C1424.01,3074.865,1425.207,3076.063,1426.67,3076.063z"/>
			
				<linearGradient id="SVGID_00000066495828526418912390000005976384902282087067_" gradientUnits="userSpaceOnUse" x1="338.7406" y1="2880.8904" x2="152.0469" y2="3283.3008" gradientTransform="matrix(-1 0 0 1 1711.2679 0)">
				<stop  offset="0" style="stop-color:#2B3582"/>
				<stop  offset="1" style="stop-color:#150E42"/>
			</linearGradient>
			<path style="fill:url(#SVGID_00000066495828526418912390000005976384902282087067_);" d="M1441.093,3169.966h29.719
				c3.014,0,5.48-2.466,5.48-5.48v-207.552c0-3.014-2.466-5.48-5.48-5.48h-29.719c-3.014,0-5.48,2.466-5.48,5.48v207.552
				C1435.613,3167.5,1438.079,3169.966,1441.093,3169.966z"/>
			
				<linearGradient id="SVGID_00000159455258933791265540000012466091244926560446_" gradientUnits="userSpaceOnUse" x1="1114.5594" y1="2413.2314" x2="1495.2831" y2="1520.9092">
				<stop  offset="0" style="stop-color:#A737D5"/>
				<stop  offset="1" style="stop-color:#EF497A"/>
			</linearGradient>
			<path style="fill:url(#SVGID_00000159455258933791265540000012466091244926560446_);" d="M1318.692,2307.113h-292.105v-56.323
				c0-9.941,8.059-18,18-18h254.082c11.059,0,20.024,8.965,20.024,20.024V2307.113z"/>
			
				<linearGradient id="SVGID_00000014601984944438067820000003508097861407201717_" gradientUnits="userSpaceOnUse" x1="1523.8979" y1="2168.0164" x2="665.9316" y2="3564.7063">
				<stop  offset="0" style="stop-color:#A737D5"/>
				<stop  offset="1" style="stop-color:#EF497A"/>
			</linearGradient>
			<path style="fill:url(#SVGID_00000014601984944438067820000003508097861407201717_);" d="M1373.51,3169.178H973.38
				c-27.233,0-49.597-21.522-50.641-48.735l-27.45-715.273c-1.103-28.73,21.89-52.622,50.641-52.622h453.316
				c28.703,0,51.678,23.816,50.646,52.501l-25.737,715.273C1423.176,3147.584,1400.79,3169.178,1373.51,3169.178z"/>
			
				<linearGradient id="SVGID_00000057838292563738152770000012872212462092603046_" gradientUnits="userSpaceOnUse" x1="1152.7074" y1="2721.2957" x2="1199.5254" y2="1860.5548">
				<stop  offset="0" style="stop-color:#A737D5"/>
				<stop  offset="1" style="stop-color:#EF497A"/>
			</linearGradient>
			<path style="fill:url(#SVGID_00000057838292563738152770000012872212462092603046_);" d="M1469.066,2386.621h-596.31
				l19.79-86.518c3.457-15.113,16.902-25.83,32.406-25.83h500.705c15.03,0,27.811,10.966,30.097,25.821L1469.066,2386.621z"/>
			
				<linearGradient id="SVGID_00000096041411805046216120000014686657792868721052_" gradientUnits="userSpaceOnUse" x1="1161.6128" y1="2496.4624" x2="1216.806" y2="1720.0734">
				<stop  offset="0" style="stop-color:#A737D5"/>
				<stop  offset="1" style="stop-color:#EF497A"/>
			</linearGradient>
			<path style="fill:url(#SVGID_00000096041411805046216120000014686657792868721052_);" d="M1486.934,2435.017H851.432
				c-4.451,0-8.059-3.608-8.059-8.059v-73.964c0-4.451,3.608-8.059,8.059-8.059h635.502c4.451,0,8.059,3.608,8.059,8.059v73.964
				C1494.993,2431.409,1491.385,2435.017,1486.934,2435.017z"/>
			<g>
				<g>
					<path style="fill:#FFFFFF;" d="M1260.371,2651.542l-20.673-12.286c-2.879-1.71-6.6-0.764-8.311,2.115l-10.712,18.025
						l31.098,18.481l10.712-18.025C1264.196,2656.974,1263.249,2653.253,1260.371,2651.542z"/>
					<path style="fill:#FFFFFF;" d="M1219.896,2779.072c0.92-3.378,0.756-9.015,0.245-14.479
						c-0.755-8.072,3.359-15.965,10.618-19.573c29.948-14.888,15.772-51.815,15.772-51.815l-5.972-3.549l-24.868-14.779
						l-5.971-3.549c0,0-39.212,5.199-37.973,38.621c0.301,8.101-4.666,15.488-12.117,18.683c-5.043,2.163-10.074,4.714-12.601,7.136
						c-6.14,5.885-62.459,105.099-62.459,105.099s-3.192,20.749,25.616,39.021l-0.015,0.029c0.126,0.072,0.247,0.133,0.373,0.203
						c0.122,0.077,0.233,0.154,0.357,0.231l0.018-0.027c29.82,16.569,46.519,3.847,46.519,3.847
						S1217.661,2787.278,1219.896,2779.072z"/>
					
						<rect x="1209.697" y="2671.929" transform="matrix(0.8597 0.5109 -0.5109 0.8597 1539.3558 -254.4171)" style="fill:#FFFFFF;" width="46.071" height="5.168"/>
				</g>
				<path style="fill:#FFFFFF;" d="M1179.91,2921.79c-87.101,0-157.964-70.864-157.964-157.965
					c0-87.102,70.862-157.965,157.964-157.965c87.103,0,157.965,70.864,157.965,157.965
					C1337.875,2850.926,1267.012,2921.79,1179.91,2921.79z M1179.91,2612.51c-83.433,0-151.313,67.879-151.313,151.314
					c0,83.435,67.879,151.314,151.313,151.314c83.435,0,151.314-67.879,151.314-151.314
					C1331.224,2680.39,1263.344,2612.51,1179.91,2612.51z"/>
			</g>
		</g>
		<g>
			
				<linearGradient id="SVGID_00000125566296040229874330000017273717864677756573_" gradientUnits="userSpaceOnUse" x1="2498.927" y1="1635.9055" x2="2081.0481" y2="642.4561" gradientTransform="matrix(1 0.0085 -0.0085 1 27.6268 -8.257)">
				<stop  offset="0" style="stop-color:#41A362"/>
				<stop  offset="1" style="stop-color:#204F2E"/>
			</linearGradient>
			<path style="fill:url(#SVGID_00000125566296040229874330000017273717864677756573_);" d="M2111.198,1260.51l277.283,510.397
				l207.469-370.194c23.005-41.049,23.716-90.942,1.889-132.629l-127.719-243.932c-10.626-20.294-39.781-19.988-49.977,0.526
				l-88.524,178.096l-184.8-1.573C2116.223,1200.939,2096.593,1233.626,2111.198,1260.51z"/>
			
				<linearGradient id="SVGID_00000104678166110892723070000002172390484531603620_" gradientUnits="userSpaceOnUse" x1="1774.264" y1="1754.5369" x2="2539.9202" y2="1754.5369" gradientTransform="matrix(1 0.0085 -0.0085 1 27.6268 -8.257)">
				<stop  offset="0" style="stop-color:#41A362"/>
				<stop  offset="1" style="stop-color:#204F2E"/>
			</linearGradient>
			<path style="fill:url(#SVGID_00000104678166110892723070000002172390484531603620_);" d="M2555.135,1473.54l-42.664,29.216
				c-41.311,28.29-90.305,43.229-140.372,42.803l-385.813-3.285l0.751-88.267c0.094-11.117-14.646-15.107-20.171-5.458
				L1786.966,1762.7l176.222,314.576c5.292,9.446,19.644,6.096,20.207-4.717l5.437-104.527l179.405,1.528
				c71.849,0.612,138.178-38.448,172.492-101.576L2555.135,1473.54z"/>
			
				<linearGradient id="SVGID_00000043456971054184510010000006722173494553703097_" gradientUnits="userSpaceOnUse" x1="1507.0371" y1="799.5974" x2="1089.1498" y2="-193.8718" gradientTransform="matrix(-0.4926 -0.8703 0.8703 -0.4926 1850.6736 2250.5784)">
				<stop  offset="0" style="stop-color:#41A362"/>
				<stop  offset="1" style="stop-color:#204F2E"/>
			</linearGradient>
			<path style="fill:url(#SVGID_00000043456971054184510010000006722173494553703097_);" d="M1668.557,1086.971l303.375-495.333
				l-424.332,5.424c-47.052,0.602-90.616,24.933-115.804,64.679l-147.392,232.575c-12.262,19.35,2.58,44.445,25.444,43.018
				l198.498-12.384l91.037,160.828C1614.454,1112.405,1652.577,1113.062,1668.557,1086.971z"/>
			
				<linearGradient id="SVGID_00000117676889174510551560000015618718393579116960_" gradientUnits="userSpaceOnUse" x1="3123.1135" y1="5.7843" x2="2705.2009" y2="-987.7448" gradientTransform="matrix(-0.5074 0.8617 -0.8617 -0.5074 2782.5547 -986.4778)">
				<stop  offset="0" style="stop-color:#41A362"/>
				<stop  offset="1" style="stop-color:#204F2E"/>
			</linearGradient>
			<path style="fill:url(#SVGID_00000117676889174510551560000015618718393579116960_);" d="M1729.98,1548.328l-580.658-15.064
				l216.863,364.77c24.047,40.448,66.9,66.009,113.916,67.95l275.112,11.358c22.888,0.945,37.2-24.457,24.533-43.544
				l-109.974-165.712l93.763-159.255C1779.057,1582.466,1760.564,1549.122,1729.98,1548.328z"/>
			
				<linearGradient id="SVGID_00000123402191289161340070000008249873685305518776_" gradientUnits="userSpaceOnUse" x1="2398.4497" y1="124.4395" x2="3164.1191" y2="124.4395" gradientTransform="matrix(-0.5074 0.8617 -0.8617 -0.5074 2782.5547 -986.4778)">
				<stop  offset="0" style="stop-color:#41A362"/>
				<stop  offset="1" style="stop-color:#204F2E"/>
			</linearGradient>
			<path style="fill:url(#SVGID_00000123402191289161340070000008249873685305518776_);" d="M1323.522,1826.274l-3.97-51.556
				c-3.844-49.921,7.715-99.821,33.118-142.967l195.751-332.481l76.066,44.785c9.581,5.641,20.406-5.13,14.813-14.739
				l-182.114-312.875l-360.542-4.675c-10.827-0.141-15.101,13.964-6.018,19.858l87.805,56.972l-91.025,154.605
				c-36.454,61.917-35.792,138.89,1.721,200.171L1323.522,1826.274z"/>
			
				<linearGradient id="SVGID_00000102545874205969451840000005755465743784451205_" gradientUnits="userSpaceOnUse" x1="782.3964" y1="918.2404" x2="1548.037" y2="918.2404" gradientTransform="matrix(-0.4926 -0.8703 0.8703 -0.4926 1850.6736 2250.5784)">
				<stop  offset="0" style="stop-color:#41A362"/>
				<stop  offset="1" style="stop-color:#204F2E"/>
			</linearGradient>
			<path style="fill:url(#SVGID_00000102545874205969451840000005755465743784451205_);" d="M1631.077,595.996l46.634,22.34
				c45.155,21.632,82.59,56.592,107.254,100.164l190.062,335.766l-76.818,43.483c-9.675,5.477-5.76,20.237,5.358,20.198
				l362.015-1.277l184.32-309.901c5.535-9.306-4.543-20.06-14.188-15.141l-93.241,47.555l-88.379-156.133
				c-35.395-62.529-102.386-100.442-174.214-98.595L1631.077,595.996z"/>
		</g>
		<g>
			<g>
				
					<linearGradient id="SVGID_00000157268669456718567270000011788986988814158507_" gradientUnits="userSpaceOnUse" x1="150.4203" y1="2518.7297" x2="561.5693" y2="3156.5369" gradientTransform="matrix(-0.8415 0.5402 0.5402 0.8415 1510.1385 -358.5932)">
					<stop  offset="0" style="stop-color:#41A362"/>
					<stop  offset="1" style="stop-color:#204F2E"/>
				</linearGradient>
				<polygon style="fill:url(#SVGID_00000157268669456718567270000011788986988814158507_);" points="2747.676,2413.653 
					3012.224,2248.038 2786.736,1826.972 2475.083,1989.047 				"/>
				
					<linearGradient id="SVGID_00000150064123485877939660000000203602604381988281_" gradientUnits="userSpaceOnUse" x1="106.3926" y1="2483.0486" x2="456.2223" y2="2483.0486" gradientTransform="matrix(-0.8415 0.5402 0.5402 0.8415 1510.1385 -358.5932)">
					<stop  offset="0" style="stop-color:#41A362"/>
					<stop  offset="1" style="stop-color:#204F2E"/>
				</linearGradient>
				<path style="fill:url(#SVGID_00000150064123485877939660000000203602604381988281_);" d="M2475.083,1989.047l311.652-162.074
					l-63.485-30.61c-12.023-5.797-25.877-5.451-37.219,0.929l-184.553,103.818c-6.342,3.568-10.797,9.761-12.246,17.026
					L2475.083,1989.047z"/>
				
					<linearGradient id="SVGID_00000063606732704853143450000018096100962865546918_" gradientUnits="userSpaceOnUse" x1="144.1059" y1="3029.7817" x2="456.2081" y2="3029.7817" gradientTransform="matrix(-0.8415 0.5402 0.5402 0.8415 1510.1385 -358.5932)">
					<stop  offset="0" style="stop-color:#A737D5"/>
					<stop  offset="1" style="stop-color:#EF497A"/>
				</linearGradient>
				<path style="fill:url(#SVGID_00000063606732704853143450000018096100962865546918_);" d="M3012.224,2248.038l-264.549,165.615
					l70.482,7.611c5.423,0.586,10.834-0.575,15.463-3.318l154.557-91.601c6.093-3.611,10.353-9.676,11.763-16.747L3012.224,2248.038
					z"/>
				<path style="fill:#FFFFFF;" d="M2802.733,1924.608l122.67,255.318c2.895,6.026,0.707,13.145-4.979,16.205l-182.896,98.392
					c-5.597,3.01-12.674,1.055-16.23-4.485l-158.84-247.418c-4.061-6.326-1.895-14.655,4.636-17.823l219.066-106.291
					C2792.247,1915.551,2799.7,1918.297,2802.733,1924.608z"/>
				
					<linearGradient id="SVGID_00000145768475309184320510000008337708649101832883_" gradientUnits="userSpaceOnUse" x1="2789.8188" y1="1933.5251" x2="2622.8254" y2="2334.3091">
					<stop  offset="0" style="stop-color:#41A362"/>
					<stop  offset="1" style="stop-color:#204F2E"/>
				</linearGradient>
				<path style="fill:url(#SVGID_00000145768475309184320510000008337708649101832883_);" d="M2883.17,2062.506
					c-6.199,20.946-14.426,48.406-19.091,63.953c-2.198,7.327-8.616,12.391-16.206,12.811l-228.334,12.62
					c-6.778,0.375-13.337-3.042-17.104-8.911l-27.626-43.032c-7.539-11.742-0.76-27.068,12.698-28.704l275.02-33.439
					C2876.013,2036.164,2887.057,2049.369,2883.17,2062.506z"/>
				<polygon style="opacity:0.37;fill:#FFFFFF;" points="2741.029,1866.872 2949.228,2273.702 2903.051,2303.347 2651.575,1911.633 
									"/>
			</g>
			<g>
				
					<linearGradient id="SVGID_00000022534898932996464800000004833505931994699660_" gradientUnits="userSpaceOnUse" x1="3480.1787" y1="2989.1299" x2="3660.7944" y2="2989.1299" gradientTransform="matrix(1 0 0 1 -527.9528 0)">
					<stop  offset="0" style="stop-color:#F9B776"/>
					<stop  offset="1" style="stop-color:#F47960"/>
				</linearGradient>
				<path style="fill:url(#SVGID_00000022534898932996464800000004833505931994699660_);" d="M2952.226,2822.395
					c0,0,96.618,210.583,147.311,297.806c0,0,10.068,54.882,0,72.141l-8.58,3.813l40.045-1.192c0,0,3.558-73.823,0.779-77.946
					c-2.778-4.124-8.334-3.854-8.334-3.854s-17.172-136.037-66.899-165.071l-48.192-165.989L2952.226,2822.395z"/>
				
					<linearGradient id="SVGID_00000014633174994862095880000011015287497681154456_" gradientUnits="userSpaceOnUse" x1="3728.4407" y1="2585.2141" x2="3638.9937" y2="3166.6174" gradientTransform="matrix(1 0 0 1 -527.9528 0)">
					<stop  offset="0" style="stop-color:#2B3582"/>
					<stop  offset="1" style="stop-color:#150E42"/>
				</linearGradient>
				<path style="fill:url(#SVGID_00000014633174994862095880000011015287497681154456_);" d="M3073.854,3206.494
					c-0.06,0.966,31.27,0.524,48.288,0.213c6.283-0.115,11.641-4.531,12.98-10.672l12.852-67.521
					c1.221-6.417-2.853-12.65-9.221-14.105l-7.173-1.64c0,0-10.234,14.039-7.013,27.256c3.222,13.218,6.089,47.455-2.052,51.444
					c-8.141,3.99-31.559,4.686-31.559,4.686S3074.39,3197.798,3073.854,3206.494z"/>
				
					<linearGradient id="SVGID_00000048496075110022820640000012116360284942263977_" gradientUnits="userSpaceOnUse" x1="3539.1814" y1="2556.0964" x2="3449.7339" y2="3137.5029" gradientTransform="matrix(1 0 0 1 -527.9528 0)">
					<stop  offset="0" style="stop-color:#2B3582"/>
					<stop  offset="1" style="stop-color:#150E42"/>
				</linearGradient>
				<path style="fill:url(#SVGID_00000048496075110022820640000012116360284942263977_);" d="M2860.647,3207.719
					c-3.168,1.805-1.861,6.643,1.786,6.607c28.48-0.287,92.297-1.188,97.968-3.546c7.321-3.045-2.668-29.353-13.181-38.258
					l-58.049,18.946L2860.647,3207.719z"/>
				
					<linearGradient id="SVGID_00000076574507005796839440000012094612360950776216_" gradientUnits="userSpaceOnUse" x1="3370.5825" y1="3002.5598" x2="3475.1729" y2="3002.5598" gradientTransform="matrix(1 0 0 1 -527.9528 0)">
					<stop  offset="0" style="stop-color:#F9B776"/>
					<stop  offset="1" style="stop-color:#F47960"/>
				</linearGradient>
				<path style="fill:url(#SVGID_00000076574507005796839440000012094612360950776216_);" d="M2842.63,2808.965
					c0,0,62.437,302.05,80.099,360.97l-41.783,26.221c0,0,20.939-3.561,36.465-4.686c15.528-1.125,29.809-18.946,29.809-18.946
					l-5.005-7.984c0,0-15.658-300.406-11.846-334.517L2842.63,2808.965z"/>
				
					<linearGradient id="SVGID_00000085933917695538926790000004684606494589184911_" gradientUnits="userSpaceOnUse" x1="3454.1179" y1="1792.4305" x2="2656.0103" y2="2696.9514">
					<stop  offset="0" style="stop-color:#3840F7"/>
					<stop  offset="1" style="stop-color:#53D8FF"/>
				</linearGradient>
				<path style="fill:url(#SVGID_00000085933917695538926790000004684606494589184911_);" d="M2817.098,2330.071
					c23.933,6.637,105.011,27.966,155.627,27.094l-31.077,175.374l2.473,28.604l-101.325-0.454c0,0-28.523-66.243-51.028-99.27
					c-6.5-9.539-1.663-20.916,2.021-31.855l-5.062-3.371c-5.151-3.428-7.384-9.87-5.461-15.751l24.674-75.493
					C2809.222,2331.145,2813.229,2328.998,2817.098,2330.071z"/>
				
					<linearGradient id="SVGID_00000026133810334181240980000007199836487762687150_" gradientUnits="userSpaceOnUse" x1="3372.3201" y1="1802.2621" x2="2846.6421" y2="2838.6003">
					<stop  offset="0" style="stop-color:#9F5699"/>
					<stop  offset="1" style="stop-color:#202278"/>
				</linearGradient>
				<path style="fill:url(#SVGID_00000026133810334181240980000007199836487762687150_);" d="M2834.677,2545.72l1.993,17.33
					c0,0-28.633,85.754,14.318,286.041c0,0,93.023,26.354,169.479-36.707c0,0-21.568-189.042-27.458-197.847
					c-29.341-43.859-48.888-53.395-48.888-53.395l-0.881-18.932C2943.24,2542.211,2861.465,2556.996,2834.677,2545.72z"/>
				
					<linearGradient id="SVGID_00000091007810096813783480000008707431081484511395_" gradientUnits="userSpaceOnUse" x1="3402.2891" y1="2318.3765" x2="3466.2927" y2="2318.3765" gradientTransform="matrix(1 0 0 1 -527.9528 0)">
					<stop  offset="0" style="stop-color:#F9B776"/>
					<stop  offset="1" style="stop-color:#F47960"/>
				</linearGradient>
				<path style="fill:url(#SVGID_00000091007810096813783480000008707431081484511395_);" d="M2874.341,2344.206
					c-0.355-0.47,21.154-64.94,21.154-64.94l30.81,2.794l12.035,73.138C2938.34,2355.198,2890.055,2364.945,2874.341,2344.206z"/>
				
					<linearGradient id="SVGID_00000183930757079527918930000000720966503978994873_" gradientUnits="userSpaceOnUse" x1="3084.4019" y1="2104.2991" x2="2862.7058" y2="2283.873">
					<stop  offset="0" style="stop-color:#F9B776"/>
					<stop  offset="1" style="stop-color:#F47960"/>
				</linearGradient>
				<path style="fill:url(#SVGID_00000183930757079527918930000000720966503978994873_);" d="M2918.928,2177.595
					c-2.054,1.28-65.836,27.639-52.133,93.857c0.81,3.913,3.421,7.229,7.071,8.857c9.359,4.175,29.51,11.323,53.611,8.874
					c33.413-3.396,55.308-61.703,54.377-78.67C2980.922,2193.546,2939.289,2164.917,2918.928,2177.595z"/>
				
					<linearGradient id="SVGID_00000149374752110553092030000018185208564512838284_" gradientUnits="userSpaceOnUse" x1="2690.0981" y1="2252.1479" x2="2847.5029" y2="2562.5237">
					<stop  offset="0" style="stop-color:#F9B776"/>
					<stop  offset="1" style="stop-color:#F47960"/>
				</linearGradient>
				<path style="fill:url(#SVGID_00000149374752110553092030000018185208564512838284_);" d="M2811.855,2366.797
					c3.321-8.635-2.796-17.927-12.038-18.353c-23.509-1.084-64.374-8.498-98.967-43.091
					c-22.438-22.438-28.383-104.071-28.383-104.071s-4.73-37.844-14.192-37.844c-9.461,0,0,23.652,0,23.652
					s-23.652,14.191-47.304-4.73c-23.652-18.922,4.73,28.383,28.383,37.844c0,0-9.091,186.364,146.499,189.27
					c5.698,0.106,10.884-3.371,12.93-8.69L2811.855,2366.797z"/>
				
					<linearGradient id="SVGID_00000090292711310841542400000007469068046217326740_" gradientUnits="userSpaceOnUse" x1="-2296.5686" y1="2191.5793" x2="-2517.8918" y2="2621.2517" gradientTransform="matrix(-1 0 0 1 604.1175 0)">
					<stop  offset="0" style="stop-color:#2B3582"/>
					<stop  offset="1" style="stop-color:#150E42"/>
				</linearGradient>
				<path style="fill:url(#SVGID_00000090292711310841542400000007469068046217326740_);" d="M2897.285,2311.295
					c0-12.465,2.609-24.317,7.305-35.047c5.293-12.092,4.204-26.219-4.26-36.347c-13.856-16.579-18.884-37.597-11.247-56.001
					c11.924-28.735,50.156-40.175,85.392-25.553c24.979,10.365,41.719,31.042,45.104,52.438
					c1.945,12.295,8.528,23.267,18.421,30.821c14.029,10.712,24.719,25.568,30.259,42.742c3.744,11.607,11.272,21.598,21.866,27.641
					c23.922,13.646,43.862,34.718,55.939,61.758c30.291,67.82-0.313,147.434-68.355,177.824s-147.757,0.048-178.048-67.772
					c-16.829-37.678-14.839-78.985,1.907-113.478c4.203-8.657,5.082-18.624,1.6-27.595
					C2899.385,2332.975,2897.285,2322.388,2897.285,2311.295z"/>
			</g>
		</g>
	</g>
</g>
</svg>
